<?xml version="1.0" encoding="UTF-8"?>
<svg id="Layer_2" data-name="Layer 2" xmlns="http://www.w3.org/2000/svg" viewBox="0 0 105.81 31.77">
  <defs>
    <style>
      .cls-1 {
        fill: #f15a29;
      }

      .cls-2 {
        fill: #fff;
      }
    </style>
  </defs>
  <g id="Layer_1-2" data-name="Layer 1">
    <g>
      <rect class="cls-1" width="31.77" height="31.77" rx="10.25" ry="10.25"/>
      <g>
        <path class="cls-2" d="M12.87,25.67c-2.68.11-5.15-2.09-5.16-4.87l-.06-13.92c0-.24.08-.52.11-.78,2.66.08,4.76,2.03,5.1,4.71v14.85Z"/>
        <path class="cls-2" d="M15.65,20.56v-6.59c.17-1.33.63-2.35,1.28-3.43l1-1.67c.96-1.6,2.63-2.6,4.5-2.74.73-.05,1.42-.04,2.2-.02l-8.84,14.7c.01.07-.13-.16-.13-.25Z"/>
        <circle class="cls-2" cx="22.13" cy="23.01" r="2.67"/>
      </g>
    </g>
    <g>
      <path class="cls-2" d="M40.41,24.1V7.41h3.39v16.69h-3.39ZM43.39,20.46v-3.79h.49l4.19-4.96h3.83l-5.73,6.52h-.75l-2.02,2.23ZM48.22,24.1l-3.83-5.47,2.14-2.58,5.59,8.05h-3.9Z"/>
      <path class="cls-2" d="M53.06,24.1v-12.4h3.38v2.04h.07c.32-.71.8-1.27,1.43-1.68.63-.41,1.42-.61,2.35-.61,1.37,0,2.42.41,3.16,1.23.74.82,1.12,1.96,1.12,3.42v8.01h-3.38v-7.3c0-.81-.19-1.44-.57-1.89-.38-.45-.95-.67-1.71-.67-.5,0-.94.12-1.31.35s-.66.55-.86.96c-.2.41-.31.88-.31,1.42v7.13h-3.38Z"/>
      <path class="cls-2" d="M72.4,24.36c-1.26,0-2.34-.26-3.26-.77-.92-.51-1.63-1.25-2.13-2.22-.51-.97-.76-2.12-.76-3.46v-.02c0-1.33.26-2.48.77-3.44.51-.96,1.23-1.7,2.15-2.22.92-.52,1.99-.78,3.23-.78s2.32.26,3.25.77c.92.51,1.64,1.25,2.15,2.21s.76,2.11.76,3.45v.02c0,1.35-.25,2.51-.76,3.47-.51.96-1.22,1.7-2.13,2.22-.92.51-2,.77-3.25.77ZM72.41,21.71c.55,0,1.02-.15,1.42-.45.4-.3.71-.73.93-1.3s.33-1.26.33-2.06v-.02c0-.79-.11-1.47-.34-2.04s-.54-1-.94-1.3c-.4-.3-.88-.45-1.43-.45s-1.01.15-1.42.45-.72.73-.94,1.3c-.22.56-.34,1.24-.34,2.04v.02c0,.81.11,1.5.33,2.06s.53,1,.94,1.3c.41.3.89.45,1.45.45Z"/>
      <path class="cls-2" d="M84.87,24.36c-1.04,0-1.94-.26-2.7-.78-.76-.52-1.34-1.26-1.75-2.22-.41-.96-.61-2.12-.61-3.46h0c0-1.36.2-2.52.61-3.48s.99-1.7,1.75-2.21c.76-.51,1.65-.77,2.68-.77.59,0,1.14.1,1.63.29.49.19.93.47,1.3.83.37.36.67.79.9,1.29h.07v-6.44h3.38v16.69h-3.38v-2.12h-.07c-.22.49-.52.92-.89,1.27-.37.35-.8.63-1.3.82s-1.04.28-1.63.28ZM86,21.56c.55,0,1.03-.15,1.45-.45.42-.3.74-.72.97-1.27.23-.55.34-1.2.34-1.94h0c0-.75-.12-1.4-.35-1.94-.23-.55-.55-.97-.97-1.27-.41-.3-.89-.45-1.44-.45s-1.05.15-1.46.44c-.41.29-.73.71-.95,1.26s-.34,1.19-.34,1.95h0c0,.76.11,1.41.33,1.96.22.55.54.97.95,1.27.41.3.9.45,1.46.45Z"/>
      <path class="cls-2" d="M100.04,24.36c-1.26,0-2.35-.26-3.26-.78s-1.61-1.26-2.11-2.23c-.49-.96-.74-2.11-.74-3.42h0c0-1.33.25-2.47.74-3.44.49-.97,1.19-1.72,2.08-2.24.89-.53,1.94-.79,3.15-.79s2.26.26,3.14.77c.88.51,1.57,1.24,2.05,2.17.48.93.72,2.02.72,3.27v1.05h-10.22v-2.14h8.62l-1.61,2v-1.31c0-.72-.11-1.33-.34-1.82-.22-.49-.53-.86-.93-1.1-.4-.25-.86-.37-1.38-.37s-.99.13-1.39.38-.72.63-.95,1.12c-.23.49-.34,1.09-.34,1.8v1.32c0,.68.11,1.26.34,1.75.23.49.55.86.98,1.12.42.26.93.39,1.52.39.46,0,.86-.07,1.2-.22.34-.15.62-.33.83-.56.22-.22.36-.45.44-.68l.02-.07h3.1l-.03.13c-.09.46-.27.91-.54,1.38s-.63.89-1.09,1.27c-.46.39-1.02.69-1.68.93s-1.43.35-2.32.35Z"/>
    </g>
  </g>
</svg>